<?xml version="1.0" encoding="UTF-8"?>
<svg width="288px" height="80px" viewBox="0 0 288 80" version="1.1" xmlns="http://www.w3.org/2000/svg" xmlns:xlink="http://www.w3.org/1999/xlink">
    <!-- Generator: Sketch 52.5 (67469) - http://www.bohemiancoding.com/sketch -->
    <title>app_logo</title>
    <desc>Created with Sketch.</desc>
    <defs>
        <linearGradient x1="0%" y1="0%" x2="100%" y2="100%" id="linearGradient-1">
            <stop stop-color="#4A4A4A" offset="0%"></stop>
            <stop stop-color="#262626" offset="100%"></stop>
        </linearGradient>
    </defs>
    <g id="Illustrations" stroke="none" stroke-width="1" fill="none" fill-rule="evenodd">
        <g id="app_logo">
            <g id="app_icon">
                <rect id="Rectangle" fill="url(#linearGradient-1)" x="0" y="0" width="80" height="80" rx="13.3333333"></rect>
                <polyline id="Path" stroke="#FFFFFF" stroke-width="5.33333333" stroke-linecap="square" stroke-linejoin="round" points="61.0231675 26.6666667 44.4878916 43.3429856 37.3852086 36.3887397 22.6666667 51.2095001"></polyline>
                <path d="M20,77.3333333 L20,2.66666667" id="Line-5" stroke="#FFFFFF" stroke-width="5.33333333" stroke-linecap="square" stroke-linejoin="round"></path>
                <circle id="Oval" fill="#FFFFFF" cx="60" cy="28" r="6.66666667"></circle>
                <circle id="Oval-Copy-2" fill="#FFFFFF" cx="20" cy="52" r="6.66666667"></circle>
            </g>
            <path d="M102.470703,47.9003906 L106.380859,47.9003906 C106.853516,51.1445312 109.947266,53.2070312 114.351562,53.2070312 C118.519531,53.2070312 121.591797,50.9511719 121.591797,47.8789062 C121.591797,45.2363281 119.658203,43.5605469 115.382812,42.4863281 L111.408203,41.4550781 C105.800781,40.0371094 103.373047,37.5019531 103.373047,33.0976562 C103.373047,27.8339844 107.777344,24.2675781 114.330078,24.2675781 C120.324219,24.2675781 124.792969,27.8339844 125.115234,32.8398438 L121.226562,32.8398438 C120.689453,29.6601562 118.068359,27.7695312 114.201172,27.7695312 C110.076172,27.7695312 107.347656,29.8320312 107.347656,32.96875 C107.347656,35.3964844 109.044922,36.7929688 113.320312,37.8886719 L116.564453,38.7480469 C122.988281,40.359375 125.566406,42.8515625 125.566406,47.40625 C125.566406,53.0996094 121.076172,56.7304688 113.986328,56.7304688 C107.412109,56.7304688 102.878906,53.25 102.470703,47.9003906 Z M160.650391,32.8398438 L154.162109,56 L150.402344,56 L145.224609,38.0820312 L144.880859,38.0820312 L139.724609,56 L135.986328,56 L129.498047,32.8398438 L133.236328,32.8398438 L137.791016,51.359375 L138.134766,51.359375 L143.3125,32.8398438 L146.857422,32.8398438 L152.035156,51.359375 L152.378906,51.359375 L156.933594,32.8398438 L160.650391,32.8398438 Z M165.677734,56 L165.677734,32.8398438 L169.373047,32.8398438 L169.373047,56 L165.677734,56 Z M167.525391,28.1347656 C166.107422,28.1347656 164.947266,26.9746094 164.947266,25.5566406 C164.947266,24.1386719 166.107422,22.9785156 167.525391,22.9785156 C168.943359,22.9785156 170.103516,24.1386719 170.103516,25.5566406 C170.103516,26.9746094 168.943359,28.1347656 167.525391,28.1347656 Z M177.966797,56 L177.966797,35.9335938 L174.121094,35.9335938 L174.121094,32.8398438 L177.966797,32.8398438 L177.966797,30.5839844 C177.966797,25.8359375 180.4375,23.859375 184.90625,23.859375 C185.636719,23.859375 186.28125,23.9238281 187.183594,24.0742188 L187.183594,27.1679688 C186.689453,27.0605469 185.851562,26.9746094 185.121094,26.9746094 C182.908203,26.9746094 181.662109,28.0917969 181.662109,30.6914062 L181.662109,32.8398438 L186.96875,32.8398438 L186.96875,35.9335938 L181.662109,35.9335938 L181.662109,56 L177.966797,56 Z M193.886719,26.8457031 L197.582031,26.8457031 L197.582031,32.8398438 L202.738281,32.8398438 L202.738281,35.9335938 L197.582031,35.9335938 L197.582031,49.0390625 C197.582031,51.7675781 198.613281,52.9277344 201.019531,52.9277344 C201.685547,52.9277344 202.050781,52.90625 202.738281,52.8417969 L202.738281,55.9570312 C202.007812,56.0859375 201.298828,56.171875 200.568359,56.171875 C195.798828,56.171875 193.886719,54.4101562 193.886719,49.984375 L193.886719,35.9335938 L190.148438,35.9335938 L190.148438,32.8398438 L193.886719,32.8398438 L193.886719,26.8457031 Z M233.546875,56 L229.679688,56 L229.679688,41.8847656 L212.664062,41.8847656 L212.664062,56 L208.796875,56 L208.796875,24.9980469 L212.664062,24.9980469 L212.664062,38.4042969 L229.679688,38.4042969 L229.679688,24.9980469 L233.546875,24.9980469 L233.546875,56 Z M259.714844,32.8398438 L259.714844,56 L256.191406,56 L256.191406,52.3691406 L255.847656,52.3691406 C254.6875,54.9472656 252.216797,56.4082031 248.671875,56.4082031 C243.472656,56.4082031 240.765625,53.3144531 240.765625,47.8359375 L240.765625,32.8398438 L244.460938,32.8398438 L244.460938,46.9335938 C244.460938,51.1015625 246.007812,53.0351562 249.703125,53.0351562 C253.785156,53.0351562 256.019531,50.6074219 256.019531,46.546875 L256.019531,32.8398438 L259.714844,32.8398438 Z M278.191406,56.4082031 C274.96875,56.4082031 272.21875,54.8828125 270.757812,52.3046875 L270.414062,52.3046875 L270.414062,56 L266.890625,56 L266.890625,23.6445312 L270.585938,23.6445312 L270.585938,36.4921875 L270.929688,36.4921875 C272.197266,34 275.011719,32.4316406 278.191406,32.4316406 C284.078125,32.4316406 287.902344,37.1367188 287.902344,44.4199219 C287.902344,51.6601562 284.056641,56.4082031 278.191406,56.4082031 Z M277.332031,35.7617188 C273.121094,35.7617188 270.5,39.0703125 270.5,44.4199219 C270.5,49.7695312 273.121094,53.078125 277.332031,53.078125 C281.564453,53.078125 284.078125,49.8339844 284.078125,44.4199219 C284.078125,39.0058594 281.564453,35.7617188 277.332031,35.7617188 Z" id="SwiftHub" fill="#000000"></path>
        </g>
    </g>
</svg>